<?xml version="1.0" encoding="UTF-8" standalone="no"?>
<!-- Created with sK1/UniConvertor (http://sk1project.org/) -->

<svg
   width="42mm"
   height="25mm"
   viewBox="0 0 42.599972 25.357126"
   fill-rule="evenodd"
   version="1.1"
   id="svg140"
   sodipodi:docname="logo_vettoriale.svg"
   inkscape:version="1.2.2 (732a01da63, 2022-12-09)"
   xmlns:inkscape="http://www.inkscape.org/namespaces/inkscape"
   xmlns:sodipodi="http://sodipodi.sourceforge.net/DTD/sodipodi-0.dtd"
   xmlns="http://www.w3.org/2000/svg"
   xmlns:svg="http://www.w3.org/2000/svg">
  <defs
     id="defs144" />
  <sodipodi:namedview
     id="namedview142"
     pagecolor="#505050"
     bordercolor="#ffffff"
     borderopacity="1"
     inkscape:showpageshadow="0"
     inkscape:pageopacity="0"
     inkscape:pagecheckerboard="1"
     inkscape:deskcolor="#505050"
     inkscape:document-units="mm"
     showgrid="false"
     inkscape:zoom="1.4770338"
     inkscape:cx="264.38122"
     inkscape:cy="206.49494"
     inkscape:window-width="1920"
     inkscape:window-height="1009"
     inkscape:window-x="-8"
     inkscape:window-y="-8"
     inkscape:window-maximized="1"
     inkscape:current-layer="g80"
     showguides="false">
    <inkscape:grid
       type="xygrid"
       id="grid387"
       originx="0"
       originy="0" />
  </sodipodi:namedview>
  <g
     inkscape:groupmode="layer"
     id="layer2"
     inkscape:label="sotto" />
  <g
     inkscape:groupmode="layer"
     id="layer3"
     inkscape:label="sopra">
    <g
       id="g102"
       transform="matrix(1.0476811,0,0,1.0534353,-215.70394,-359.7724)"
       inkscape:highlight-color="#2350a9"
       style="stroke-width:1.00023;stroke-dasharray:none">
      <g
         id="g80"
         style="stroke-width:1.00023;stroke-dasharray:none">
        <path
           style="fill:#a9abac;stroke:none;stroke-width:0.498402;stroke-dasharray:none"
           d="m 209.38953,341.52302 c -1.93433,0 -3.50251,1.61673 -3.50251,3.60983 0,1.9936 1.56818,3.61033 3.50251,3.61033 0,0 7.21165,0 7.70984,0 0.35535,0.39204 13.28607,14.74686 13.28607,14.74686 1.13773,1.25909 3.01807,2.10387 4.68294,2.10387 h 7.97635 c 1.9358,0 3.50349,-1.61673 3.50349,-3.60931 0,-1.99411 -1.56769,-3.61034 -3.50349,-3.61034 0,0 -7.21018,0 -7.70886,0 -0.3529,-0.39001 -13.28558,-14.74686 -13.28558,-14.74686 -1.13527,-1.25908 -3.01757,-2.10438 -4.68392,-2.10438 z"
           id="path74" />
        <path
           style="fill:#a9abac;stroke:none;stroke-width:0.498402;stroke-dasharray:none"
           d="m 235.06838,341.52302 c -1.93384,0 -3.50153,1.61673 -3.50153,3.60983 0,1.9936 1.56769,3.61033 3.50153,3.61033 h 7.97635 c 1.9358,0 3.50349,-1.61673 3.50349,-3.61033 0,-1.9931 -1.56769,-3.60983 -3.50349,-3.60983 z"
           id="path76" />
        <path
           style="fill:#a9abac;stroke:none;stroke-width:0.498402;stroke-dasharray:none"
           d="m 209.38953,358.37426 c -1.93433,0 -3.50251,1.61623 -3.50251,3.61034 0,1.99258 1.56818,3.60931 3.50251,3.60931 h 7.97684 c 1.93434,0 3.50251,-1.61673 3.50251,-3.60931 0,-1.99411 -1.56817,-3.61034 -3.50251,-3.61034 z"
           id="path78" />
      </g>
    </g>
  </g>
</svg>
