<?xml version="1.0" encoding="UTF-8" standalone="no"?>
<!-- Created with sK1/UniConvertor (http://sk1project.org/) -->

<svg
   width="210.00014mm"
   height="73mm"
   viewBox="0 0 213 74.042809"
   fill-rule="evenodd"
   version="1.1"
   id="svg140"
   sodipodi:docname="logo_vettoriale.svg"
   inkscape:version="1.2.2 (732a01da63, 2022-12-09)"
   xmlns:inkscape="http://www.inkscape.org/namespaces/inkscape"
   xmlns:sodipodi="http://sodipodi.sourceforge.net/DTD/sodipodi-0.dtd"
   xmlns="http://www.w3.org/2000/svg"
   xmlns:svg="http://www.w3.org/2000/svg">
  <defs
     id="defs144" />
  <sodipodi:namedview
     id="namedview142"
     pagecolor="#505050"
     bordercolor="#ffffff"
     borderopacity="1"
     inkscape:showpageshadow="0"
     inkscape:pageopacity="0"
     inkscape:pagecheckerboard="1"
     inkscape:deskcolor="#505050"
     inkscape:document-units="mm"
     showgrid="false"
     inkscape:zoom="1.4770338"
     inkscape:cx="392.6789"
     inkscape:cy="225.45185"
     inkscape:window-width="1920"
     inkscape:window-height="1009"
     inkscape:window-x="-8"
     inkscape:window-y="-8"
     inkscape:window-maximized="1"
     inkscape:current-layer="layer3">
    <inkscape:grid
       type="xygrid"
       id="grid387" />
  </sodipodi:namedview>
  <g
     inkscape:groupmode="layer"
     id="layer2"
     inkscape:label="sotto">
    <g
       id="g134"
       inkscape:label="g134"
       transform="matrix(1.0476811,0,0,1.0534353,-215.70394,-359.7724)">
      <path
         style="fill:#213871;stroke:none"
         d="m 213.249,403.851 h -0.026 c -0.251,-0.313 -0.533,-0.568 -0.845,-0.765 -0.313,-0.197 -0.684,-0.295 -1.113,-0.295 -0.322,0 -0.619,0.063 -0.891,0.187 -0.273,0.126 -0.508,0.295 -0.704,0.51 -0.197,0.214 -0.351,0.463 -0.462,0.745 -0.112,0.281 -0.168,0.578 -0.168,0.891 0,0.312 0.051,0.609 0.154,0.89 0.102,0.282 0.247,0.531 0.436,0.745 0.188,0.215 0.415,0.385 0.683,0.51 0.269,0.124 0.568,0.187 0.898,0.187 0.456,0 0.847,-0.097 1.174,-0.288 0.326,-0.193 0.618,-0.459 0.878,-0.799 h 0.027 v 1.433 c -0.313,0.205 -0.63,0.364 -0.952,0.476 -0.322,0.11 -0.671,0.167 -1.046,0.167 -0.474,0 -0.916,-0.085 -1.327,-0.255 -0.412,-0.169 -0.766,-0.401 -1.065,-0.696 -0.298,-0.295 -0.532,-0.645 -0.7,-1.052 -0.169,-0.406 -0.253,-0.846 -0.253,-1.318 0,-0.465 0.089,-0.9 0.266,-1.306 0.178,-0.406 0.419,-0.758 0.721,-1.058 0.303,-0.299 0.657,-0.534 1.065,-0.703 0.406,-0.17 0.842,-0.255 1.307,-0.255 0.339,0 0.676,0.055 1.011,0.161 0.335,0.107 0.646,0.263 0.932,0.469 z"
         id="path104" />
      <path
         style="fill:#213871;stroke:none"
         d="m 225.408,402.978 c 0.277,0.126 0.513,0.293 0.71,0.503 0.197,0.211 0.349,0.457 0.456,0.737 0.106,0.282 0.16,0.583 0.16,0.906 0,0.321 -0.054,0.623 -0.16,0.904 -0.107,0.282 -0.259,0.531 -0.456,0.744 -0.197,0.215 -0.433,0.383 -0.71,0.503 -0.277,0.121 -0.58,0.181 -0.911,0.181 -0.33,0 -0.634,-0.06 -0.912,-0.181 -0.276,-0.12 -0.512,-0.288 -0.709,-0.503 -0.197,-0.213 -0.349,-0.462 -0.456,-0.744 -0.108,-0.281 -0.16,-0.583 -0.16,-0.904 0,-0.323 0.052,-0.624 0.16,-0.906 0.107,-0.28 0.259,-0.526 0.456,-0.737 0.197,-0.21 0.433,-0.377 0.709,-0.503 0.278,-0.124 0.582,-0.187 0.912,-0.187 0.331,0 0.634,0.063 0.911,0.187 z m 0.377,5.212 c 0.402,-0.169 0.752,-0.403 1.052,-0.703 0.299,-0.298 0.537,-0.649 0.711,-1.051 0.174,-0.402 0.262,-0.834 0.262,-1.3 0,-0.464 -0.086,-0.896 -0.255,-1.298 -0.17,-0.401 -0.406,-0.754 -0.705,-1.058 -0.299,-0.304 -0.65,-0.542 -1.052,-0.716 -0.403,-0.175 -0.836,-0.262 -1.301,-0.262 -0.465,0 -0.899,0.087 -1.301,0.262 -0.403,0.174 -0.753,0.412 -1.053,0.716 -0.3,0.304 -0.534,0.657 -0.704,1.058 -0.17,0.402 -0.255,0.834 -0.255,1.298 0,0.466 0.087,0.898 0.261,1.3 0.175,0.402 0.411,0.753 0.712,1.051 0.299,0.3 0.65,0.534 1.052,0.703 0.402,0.17 0.831,0.255 1.288,0.255 0.455,0 0.884,-0.085 1.288,-0.255 z"
         id="path106" />
      <path
         style="fill:#213871;stroke:none"
         d="m 237.171,402.657 h 0.026 c 0.17,-0.258 0.384,-0.465 0.643,-0.621 0.259,-0.156 0.549,-0.234 0.87,-0.234 0.375,0 0.717,0.091 1.024,0.274 0.308,0.183 0.548,0.44 0.717,0.771 0.188,-0.349 0.453,-0.609 0.798,-0.783 0.343,-0.175 0.707,-0.262 1.091,-0.262 0.403,0 0.733,0.076 0.993,0.228 0.258,0.152 0.464,0.351 0.616,0.596 0.152,0.245 0.257,0.527 0.314,0.843 0.059,0.318 0.088,0.642 0.088,0.972 v 3.83 h -1.075 v -3.658 c 0,-0.205 -0.01,-0.415 -0.027,-0.63 -0.019,-0.214 -0.065,-0.411 -0.141,-0.59 -0.076,-0.178 -0.19,-0.323 -0.34,-0.435 -0.152,-0.111 -0.367,-0.167 -0.644,-0.167 -0.312,0 -0.557,0.067 -0.734,0.201 -0.179,0.134 -0.315,0.306 -0.409,0.515 -0.093,0.21 -0.154,0.44 -0.18,0.691 -0.027,0.25 -0.04,0.496 -0.04,0.737 v 3.336 h -1.075 v -3.577 c 0,-0.197 -0.012,-0.407 -0.034,-0.631 -0.023,-0.223 -0.071,-0.428 -0.147,-0.616 -0.076,-0.187 -0.188,-0.343 -0.335,-0.469 -0.147,-0.124 -0.349,-0.187 -0.609,-0.187 -0.312,0 -0.561,0.071 -0.749,0.214 -0.187,0.144 -0.327,0.323 -0.421,0.542 -0.093,0.219 -0.154,0.459 -0.18,0.718 -0.027,0.259 -0.04,0.51 -0.04,0.75 v 3.256 h -1.075 v -6.298 h 1.075 z"
         id="path108" />
      <path
         style="fill:#213871;stroke:none"
         d="m 257.105,402.972 c 0.264,0.12 0.485,0.284 0.663,0.489 0.179,0.206 0.317,0.447 0.415,0.724 0.099,0.277 0.147,0.572 0.147,0.884 0,0.323 -0.044,0.627 -0.133,0.913 -0.09,0.286 -0.223,0.538 -0.402,0.756 -0.178,0.22 -0.397,0.394 -0.656,0.524 -0.259,0.129 -0.561,0.194 -0.91,0.194 -0.339,0 -0.636,-0.067 -0.891,-0.202 -0.253,-0.133 -0.468,-0.312 -0.641,-0.535 -0.174,-0.223 -0.306,-0.478 -0.395,-0.764 -0.09,-0.286 -0.134,-0.585 -0.134,-0.899 0,-0.295 0.049,-0.579 0.147,-0.851 0.098,-0.273 0.237,-0.513 0.415,-0.724 0.178,-0.21 0.393,-0.377 0.642,-0.503 0.251,-0.124 0.531,-0.187 0.843,-0.187 0.331,0 0.627,0.06 0.89,0.181 z m -2.885,-0.996 h -1.075 v 9.834 h 1.075 v -4.421 h 0.027 c 0.258,0.338 0.574,0.599 0.949,0.782 0.374,0.183 0.776,0.274 1.204,0.274 0.473,0 0.896,-0.087 1.271,-0.261 0.374,-0.174 0.691,-0.413 0.95,-0.717 0.258,-0.303 0.456,-0.656 0.595,-1.058 0.137,-0.401 0.207,-0.826 0.207,-1.273 0,-0.436 -0.071,-0.856 -0.215,-1.258 -0.142,-0.402 -0.343,-0.757 -0.601,-1.064 -0.259,-0.309 -0.574,-0.555 -0.944,-0.738 -0.371,-0.183 -0.788,-0.274 -1.252,-0.274 -0.437,0 -0.844,0.091 -1.218,0.275 -0.375,0.182 -0.692,0.449 -0.95,0.797 h -0.023 z"
         id="path110" />
      <path
         style="fill:#213871;stroke:none"
         d="m 268.725,405.486 c 0,0.268 0.014,0.521 0.04,0.757 0.027,0.238 0.088,0.445 0.182,0.623 0.093,0.18 0.236,0.323 0.429,0.43 0.192,0.107 0.449,0.16 0.771,0.16 0.322,0 0.579,-0.053 0.771,-0.16 0.192,-0.107 0.335,-0.25 0.43,-0.43 0.094,-0.178 0.154,-0.385 0.181,-0.623 0.027,-0.236 0.04,-0.489 0.04,-0.757 v -3.51 h 1.076 v 3.629 c 0,0.42 -0.043,0.804 -0.127,1.152 -0.086,0.348 -0.227,0.647 -0.424,0.897 -0.197,0.251 -0.454,0.445 -0.772,0.582 -0.318,0.14 -0.709,0.209 -1.175,0.209 -0.465,0 -0.857,-0.069 -1.175,-0.209 -0.318,-0.137 -0.575,-0.331 -0.772,-0.582 -0.198,-0.25 -0.338,-0.549 -0.423,-0.897 -0.086,-0.348 -0.128,-0.732 -0.128,-1.152 v -3.629 h 1.076 z"
         id="path112" />
      <path
         style="fill:#213871;stroke:none"
         d="m 282.529,408.265 h -1.075 v -5.307 h -0.657 v -0.989 h 0.657 v -2.265 h 1.075 v 2.265 h 1.126 v 0.989 h -1.126 z"
         id="path114" />
      <path
         style="fill:#213871;stroke:none"
         d="m 291.996,404.439 c 0.035,-0.224 0.111,-0.436 0.228,-0.637 0.116,-0.2 0.261,-0.377 0.436,-0.529 0.173,-0.152 0.369,-0.27 0.583,-0.354 0.214,-0.086 0.438,-0.128 0.67,-0.128 0.232,0 0.453,0.042 0.664,0.128 0.21,0.084 0.395,0.202 0.556,0.354 0.161,0.152 0.298,0.329 0.41,0.529 0.111,0.201 0.185,0.413 0.221,0.637 z m 4.895,0.919 c 0.027,-0.465 -0.017,-0.913 -0.134,-1.342 -0.116,-0.429 -0.302,-0.809 -0.557,-1.141 -0.254,-0.33 -0.574,-0.592 -0.958,-0.785 -0.385,-0.191 -0.831,-0.288 -1.341,-0.288 -0.491,0 -0.926,0.089 -1.307,0.268 -0.38,0.179 -0.698,0.421 -0.956,0.729 -0.258,0.309 -0.453,0.67 -0.587,1.085 -0.133,0.415 -0.199,0.856 -0.199,1.32 0,0.455 0.07,0.88 0.213,1.272 0.142,0.393 0.346,0.735 0.613,1.025 0.267,0.29 0.59,0.52 0.97,0.689 0.379,0.17 0.807,0.255 1.28,0.255 0.643,0 1.213,-0.154 1.71,-0.461 0.495,-0.308 0.895,-0.743 1.2,-1.306 l -0.912,-0.523 c -0.206,0.376 -0.463,0.686 -0.771,0.933 -0.308,0.246 -0.69,0.368 -1.146,0.368 -0.304,0 -0.584,-0.055 -0.839,-0.167 -0.254,-0.112 -0.471,-0.26 -0.65,-0.448 -0.179,-0.187 -0.319,-0.407 -0.421,-0.662 -0.103,-0.254 -0.156,-0.527 -0.156,-0.821 z"
         id="path116" />
      <path
         style="fill:#213871;stroke:none"
         d="m 306.209,402.657 h 0.027 c 0.188,-0.249 0.379,-0.454 0.575,-0.614 0.198,-0.161 0.47,-0.241 0.819,-0.241 0.179,0 0.346,0.027 0.503,0.08 0.156,0.055 0.31,0.125 0.462,0.214 l -0.51,0.976 c -0.107,-0.071 -0.205,-0.136 -0.295,-0.194 -0.089,-0.058 -0.204,-0.087 -0.348,-0.087 -0.295,0 -0.525,0.082 -0.69,0.248 -0.166,0.165 -0.288,0.368 -0.368,0.609 -0.082,0.242 -0.131,0.497 -0.148,0.764 -0.018,0.268 -0.027,0.506 -0.027,0.71 v 3.149 h -1.075 v -6.295 h 1.075 z"
         id="path118" />
      <path
         style="fill:#213871;stroke:none"
         d="m 329.963,403.435 c -0.071,-0.171 -0.183,-0.32 -0.335,-0.449 -0.152,-0.13 -0.326,-0.195 -0.524,-0.195 -0.187,0 -0.364,0.065 -0.528,0.194 -0.166,0.13 -0.249,0.297 -0.249,0.503 0,0.143 0.043,0.266 0.126,0.368 0.085,0.103 0.194,0.196 0.326,0.281 0.133,0.085 0.286,0.16 0.458,0.228 0.173,0.067 0.352,0.14 0.538,0.221 0.186,0.08 0.366,0.17 0.539,0.269 0.172,0.097 0.326,0.216 0.458,0.354 0.133,0.139 0.242,0.304 0.325,0.496 0.085,0.193 0.127,0.422 0.127,0.69 0,0.295 -0.055,0.569 -0.167,0.824 -0.111,0.255 -0.265,0.472 -0.459,0.649 -0.196,0.18 -0.421,0.32 -0.675,0.423 -0.255,0.102 -0.53,0.154 -0.824,0.154 -0.537,0 -0.999,-0.141 -1.388,-0.421 -0.389,-0.281 -0.668,-0.671 -0.838,-1.172 l 0.951,-0.402 c 0.135,0.295 0.294,0.537 0.478,0.724 0.182,0.189 0.453,0.282 0.81,0.282 0.286,0 0.527,-0.089 0.724,-0.267 0.196,-0.18 0.295,-0.412 0.295,-0.698 0,-0.232 -0.07,-0.419 -0.207,-0.562 -0.138,-0.143 -0.313,-0.268 -0.527,-0.375 -0.213,-0.108 -0.44,-0.208 -0.679,-0.301 -0.24,-0.095 -0.467,-0.211 -0.681,-0.349 -0.214,-0.138 -0.39,-0.311 -0.527,-0.516 -0.138,-0.205 -0.205,-0.473 -0.205,-0.804 0,-0.267 0.048,-0.512 0.146,-0.73 0.099,-0.22 0.237,-0.406 0.411,-0.563 0.176,-0.156 0.375,-0.276 0.599,-0.361 0.224,-0.086 0.465,-0.128 0.724,-0.128 0.368,0 0.703,0.112 1.005,0.334 0.304,0.223 0.529,0.498 0.672,0.829 z"
         id="path120" />
      <path
         style="fill:#213871;stroke:none"
         d="m 340.136,404.439 c 0.035,-0.224 0.111,-0.436 0.227,-0.637 0.115,-0.2 0.261,-0.377 0.436,-0.529 0.175,-0.152 0.368,-0.27 0.583,-0.354 0.215,-0.086 0.438,-0.128 0.671,-0.128 0.232,0 0.453,0.042 0.663,0.128 0.211,0.084 0.395,0.202 0.556,0.354 0.162,0.152 0.297,0.329 0.409,0.529 0.112,0.201 0.186,0.413 0.221,0.637 z m 4.894,0.919 c 0.028,-0.465 -0.018,-0.913 -0.133,-1.342 -0.117,-0.429 -0.302,-0.809 -0.557,-1.141 -0.255,-0.33 -0.574,-0.592 -0.958,-0.785 -0.385,-0.191 -0.831,-0.288 -1.341,-0.288 -0.492,0 -0.928,0.089 -1.308,0.268 -0.38,0.179 -0.699,0.421 -0.957,0.729 -0.257,0.309 -0.453,0.67 -0.586,1.085 -0.133,0.415 -0.2,0.856 -0.2,1.32 0,0.455 0.071,0.88 0.214,1.272 0.141,0.393 0.346,0.735 0.613,1.025 0.267,0.29 0.59,0.52 0.97,0.689 0.38,0.17 0.807,0.255 1.281,0.255 0.643,0 1.213,-0.154 1.708,-0.461 0.496,-0.308 0.897,-0.743 1.202,-1.306 l -0.913,-0.523 c -0.205,0.376 -0.462,0.686 -0.771,0.933 -0.308,0.246 -0.691,0.368 -1.146,0.368 -0.304,0 -0.583,-0.055 -0.838,-0.167 -0.254,-0.112 -0.471,-0.26 -0.65,-0.448 -0.179,-0.187 -0.32,-0.407 -0.423,-0.662 -0.103,-0.254 -0.154,-0.527 -0.154,-0.821 z"
         id="path122" />
      <path
         style="fill:#213871;stroke:none"
         d="m 354.349,402.657 h 0.026 c 0.187,-0.249 0.38,-0.454 0.576,-0.614 0.197,-0.161 0.47,-0.241 0.819,-0.241 0.178,0 0.345,0.027 0.502,0.08 0.157,0.055 0.311,0.125 0.462,0.214 l -0.509,0.976 c -0.108,-0.071 -0.204,-0.136 -0.295,-0.194 -0.089,-0.058 -0.206,-0.087 -0.348,-0.087 -0.296,0 -0.525,0.082 -0.69,0.248 -0.166,0.165 -0.289,0.368 -0.37,0.609 -0.081,0.242 -0.129,0.497 -0.147,0.764 -0.018,0.268 -0.026,0.506 -0.026,0.71 v 3.149 h -1.076 v -6.295 h 1.076 z"
         id="path124" />
      <path
         style="fill:#213871;stroke:none"
         d="m 367.246,406.212 1.877,-4.236 h 1.207 l -3.084,6.716 -3.098,-6.716 h 1.221 z"
         id="path126" />
      <path
         style="fill:#213871;stroke:none"
         d="m 378.895,398.837 c 0.205,0 0.383,0.075 0.535,0.227 0.151,0.152 0.227,0.331 0.227,0.535 0,0.215 -0.076,0.395 -0.227,0.542 -0.152,0.148 -0.33,0.221 -0.535,0.221 -0.206,0 -0.384,-0.073 -0.537,-0.221 -0.151,-0.147 -0.227,-0.327 -0.227,-0.542 0,-0.204 0.076,-0.383 0.227,-0.535 0.153,-0.152 0.331,-0.227 0.537,-0.227 z m 0.537,9.434 h -1.076 v -6.295 h 1.076 z"
         id="path128" />
      <path
         style="fill:#213871;stroke:none"
         d="m 393.158,403.851 h -0.027 c -0.25,-0.313 -0.532,-0.568 -0.844,-0.765 -0.313,-0.197 -0.684,-0.295 -1.113,-0.295 -0.322,0 -0.619,0.063 -0.892,0.187 -0.272,0.126 -0.507,0.295 -0.703,0.51 -0.197,0.214 -0.351,0.463 -0.463,0.745 -0.111,0.281 -0.168,0.578 -0.168,0.891 0,0.312 0.052,0.609 0.155,0.89 0.102,0.282 0.248,0.531 0.436,0.745 0.188,0.215 0.415,0.385 0.683,0.51 0.269,0.124 0.568,0.187 0.898,0.187 0.456,0 0.847,-0.097 1.173,-0.288 0.327,-0.193 0.619,-0.459 0.879,-0.799 h 0.026 v 1.433 c -0.312,0.205 -0.63,0.364 -0.951,0.476 -0.322,0.11 -0.671,0.167 -1.046,0.167 -0.473,0 -0.916,-0.085 -1.327,-0.255 -0.412,-0.169 -0.767,-0.401 -1.064,-0.696 -0.298,-0.295 -0.533,-0.645 -0.701,-1.052 -0.169,-0.406 -0.254,-0.846 -0.254,-1.318 0,-0.465 0.089,-0.9 0.267,-1.306 0.178,-0.406 0.419,-0.758 0.721,-1.058 0.303,-0.299 0.657,-0.534 1.064,-0.703 0.408,-0.17 0.843,-0.255 1.308,-0.255 0.339,0 0.677,0.055 1.012,0.161 0.334,0.107 0.645,0.263 0.931,0.469 z"
         id="path130" />
      <path
         style="fill:#213871;stroke:none"
         d="m 402.238,404.439 c 0.035,-0.224 0.112,-0.436 0.228,-0.637 0.115,-0.2 0.261,-0.377 0.435,-0.529 0.175,-0.152 0.369,-0.27 0.583,-0.354 0.215,-0.086 0.439,-0.128 0.671,-0.128 0.233,0 0.453,0.042 0.664,0.128 0.209,0.084 0.395,0.202 0.556,0.354 0.16,0.152 0.297,0.329 0.408,0.529 0.113,0.201 0.186,0.413 0.222,0.637 z m 4.895,0.919 c 0.026,-0.465 -0.019,-0.913 -0.134,-1.342 -0.116,-0.429 -0.302,-0.809 -0.557,-1.141 -0.254,-0.33 -0.574,-0.592 -0.959,-0.785 -0.383,-0.191 -0.83,-0.288 -1.339,-0.288 -0.493,0 -0.928,0.089 -1.308,0.268 -0.38,0.179 -0.699,0.421 -0.957,0.729 -0.258,0.309 -0.453,0.67 -0.586,1.085 -0.134,0.415 -0.2,0.856 -0.2,1.32 0,0.455 0.071,0.88 0.213,1.272 0.141,0.393 0.346,0.735 0.613,1.025 0.266,0.29 0.591,0.52 0.971,0.689 0.38,0.17 0.806,0.255 1.28,0.255 0.644,0 1.214,-0.154 1.709,-0.461 0.496,-0.308 0.896,-0.743 1.2,-1.306 l -0.912,-0.523 c -0.204,0.376 -0.462,0.686 -0.77,0.933 -0.308,0.246 -0.691,0.368 -1.146,0.368 -0.305,0 -0.583,-0.055 -0.838,-0.167 -0.255,-0.112 -0.472,-0.26 -0.65,-0.448 -0.179,-0.187 -0.321,-0.407 -0.423,-0.662 -0.104,-0.254 -0.155,-0.527 -0.155,-0.821 z"
         id="path132" />
    </g>
  </g>
  <g
     inkscape:groupmode="layer"
     id="layer3"
     inkscape:label="sopra">
    <g
       id="g102"
       transform="matrix(1.0476811,0,0,1.0534353,-215.70394,-359.7724)">
      <g
         id="g80">
        <path
           style="fill:#a9abac;stroke:none"
           d="m 273.256,341.523 c -3.941,0 -7.136,3.196 -7.136,7.136 0,3.941 3.195,7.137 7.136,7.137 0,0 14.693,0 15.708,0 0.724,0.775 27.069,29.152 27.069,29.152 2.318,2.489 6.149,4.159 9.541,4.159 h 16.251 c 3.944,0 7.138,-3.196 7.138,-7.135 0,-3.942 -3.194,-7.137 -7.138,-7.137 0,0 -14.69,0 -15.706,0 -0.719,-0.771 -27.068,-29.152 -27.068,-29.152 -2.313,-2.489 -6.148,-4.16 -9.543,-4.16 z"
           id="path74" />
        <path
           style="fill:#a9abac;stroke:none"
           d="m 325.574,341.523 c -3.94,0 -7.134,3.196 -7.134,7.136 0,3.941 3.194,7.137 7.134,7.137 h 16.251 c 3.944,0 7.138,-3.196 7.138,-7.137 0,-3.94 -3.194,-7.136 -7.138,-7.136 z"
           id="path76" />
        <path
           style="fill:#a9abac;stroke:none"
           d="m 273.256,374.835 c -3.941,0 -7.136,3.195 -7.136,7.137 0,3.939 3.195,7.135 7.136,7.135 h 16.252 c 3.941,0 7.136,-3.196 7.136,-7.135 0,-3.942 -3.195,-7.137 -7.136,-7.137 z"
           id="path78" />
      </g>
      <g
         id="g90">
        <g
           id="g86">
          <path
             style="fill:#213871;stroke:none"
             d="m 213.022,374.835 c -3.941,0 -7.135,3.195 -7.135,7.137 0,3.939 3.194,7.135 7.135,7.135 h 40.614 c 3.941,0 7.136,-3.196 7.136,-7.135 0,-3.942 -3.195,-7.137 -7.136,-7.137 z"
             id="path82" />
          <path
             style="fill:#213871;stroke:none"
             d="m 213.022,341.523 c -3.941,0 -7.135,3.196 -7.135,7.136 0,3.941 3.194,7.137 7.135,7.137 h 40.614 c 3.941,0 7.136,-3.196 7.136,-7.137 0,-3.94 -3.195,-7.136 -7.136,-7.136 z"
             id="path84" />
        </g>
        <path
           style="fill:#213871;stroke:none"
           d="m 213.022,358.179 c -3.941,0 -7.135,3.194 -7.135,7.135 0,3.941 3.194,7.136 7.135,7.136 h 22.124 c 3.941,0 7.135,-3.195 7.135,-7.136 0,-3.941 -3.194,-7.135 -7.135,-7.135 z"
           id="path88" />
      </g>
      <g
         id="g100">
        <g
           id="g96">
          <path
             style="fill:#213871;stroke:none"
             d="m 361.447,374.835 c -3.938,0 -7.135,3.195 -7.135,7.137 0,3.939 3.197,7.135 7.135,7.135 h 40.612 c 3.939,0 7.134,-3.196 7.134,-7.135 0,-3.942 -3.195,-7.137 -7.134,-7.137 z"
             id="path92" />
          <path
             style="fill:#213871;stroke:none"
             d="m 361.447,341.523 c -3.938,0 -7.135,3.196 -7.135,7.136 0,3.941 3.197,7.137 7.135,7.137 h 40.612 c 3.939,0 7.134,-3.196 7.134,-7.137 0,-3.94 -3.195,-7.136 -7.134,-7.136 z"
             id="path94" />
        </g>
        <path
           style="fill:#213871;stroke:none"
           d="m 361.447,358.179 c -3.938,0 -7.135,3.194 -7.135,7.135 0,3.941 3.197,7.136 7.135,7.136 h 22.121 c 3.942,0 7.135,-3.195 7.135,-7.136 0,-3.941 -3.193,-7.135 -7.135,-7.135 z"
           id="path98" />
      </g>
    </g>
    <ellipse
       style="fill:#213873;fill-opacity:1;fill-rule:evenodd;stroke:none;stroke-width:1.34419;stroke-dasharray:none;stroke-opacity:1"
       id="path3728"
       cx="105.82359"
       cy="57.884514"
       rx="100.7564"
       ry="0.34218982" />
  </g>
</svg>
