<?xml version="1.0" encoding="UTF-8" standalone="no"?>
<!-- Uploaded to: SVG Repo, www.svgrepo.com, Generator: SVG Repo Mixer Tools -->

<svg
   width="120.00001"
   height="120.00009"
   viewBox="0 0 4.0000003 4.0000031"
   fill="none"
   version="1.1"
   id="svg6"
   sodipodi:docname="occhio_password.svg"
   inkscape:version="1.2.2 (732a01da63, 2022-12-09)"
   xmlns:inkscape="http://www.inkscape.org/namespaces/inkscape"
   xmlns:sodipodi="http://sodipodi.sourceforge.net/DTD/sodipodi-0.dtd"
   xmlns="http://www.w3.org/2000/svg"
   xmlns:svg="http://www.w3.org/2000/svg">
  <defs
     id="defs10" />
  <sodipodi:namedview
     id="namedview8"
     pagecolor="#505050"
     bordercolor="#ffffff"
     borderopacity="1"
     inkscape:showpageshadow="0"
     inkscape:pageopacity="0"
     inkscape:pagecheckerboard="1"
     inkscape:deskcolor="#505050"
     showgrid="false"
     inkscape:zoom="4.145"
     inkscape:cx="90.832328"
     inkscape:cy="42.943305"
     inkscape:window-width="1920"
     inkscape:window-height="1009"
     inkscape:window-x="-8"
     inkscape:window-y="-8"
     inkscape:window-maximized="1"
     inkscape:current-layer="svg6" />
  <path
     clip-rule="evenodd"
     d="M 3.3373541,0.01740362 C 3.2784926,-0.01842362 3.2032158,0.00283876 3.1692312,0.06489161 L 2.7928161,0.75237557 C 2.5363701,0.6275371 2.2709088,0.56370663 2.0021859,0.56370663 c -0.7220241,0 -1.42049126,0.46109967 -1.98373236,1.32792617 l -0.0022381,0.00341 -0.0019524,0.00294 c -0.01876122,0.027936 -0.01924017,0.060784 -9.381e-5,0.0884 C 0.42979045,2.6284315 0.91954552,3.048928 1.4382143,3.2256641 L 1.1383607,3.7729309 c -0.033992,0.062064 -0.013822,0.1414081 0.045045,0.1772321 l 0.053297,0.032432 C 1.2955687,4.018419 1.3708396,3.997171 1.4048303,3.935107 L 3.4356925,0.22706779 c 0.034,-0.0620524 0.013831,-0.14139856 -0.045046,-0.17722732 z M 2.6295393,1.0505039 C 2.4208163,0.95493422 2.2100627,0.90835174 2.0021859,0.90835174 c -0.524615,0 -1.06769761,0.29672196 -1.55001735,0.92884896 -0.0463019,0.060689 -0.0463019,0.1491522 0,0.2098403 0.3615444,0.4738565 0.75722105,0.7593128 1.15367925,0.8725769 L 1.8131552,2.5410895 C 1.5763401,2.4625294 1.380514,2.2434092 1.380514,1.9424649 c 0,-0.3806724 0.2805491,-0.6892999 0.6265642,-0.6892999 0.159723,0 0.3054921,0.06576 0.416169,0.1740033 z M 2.2521549,1.7395686 C 2.1988626,1.6536485 2.1112474,1.5978085 2.0070782,1.5978085 c -0.1731537,0 -0.314769,0.1540641 -0.314769,0.3444004 0,0.1257921 0.129723,0.2727843 0.2926767,0.2851523 z"
     fill="#000000"
     fill-rule="evenodd"
     id="path2"
     style="fill:#005288;fill-opacity:1;stroke:none;stroke-width:0.156893" />
  <path
     d="M 2.1057397,3.3175543 C 2.7894007,3.2757467 3.4470156,2.8203698 3.9825229,1.9983369 3.9937381,1.9811207 4,1.9633131 4,1.9421293 4,1.9219369 3.9946191,1.9050731 3.9839381,1.8886569 3.7781384,1.5722085 3.5542309,1.3099922 3.3177234,1.1046672 L 3.1547697,1.4022083 c 0.1357999,0.1216162 0.2687843,0.2663682 0.3974459,0.4349924 0.046308,0.060689 0.046308,0.1491522 0,0.2098403 C 3.1642466,2.5555375 2.73697,2.8470899 2.3116011,2.941698 Z"
     fill="#000000"
     id="path4"
     style="fill:#005288;fill-opacity:1;stroke:none;stroke-width:0.156893" />
</svg>
